<svg width="22" height="22" viewBox="0 0 22 22" fill="none" xmlns="http://www.w3.org/2000/svg">
<path d="M0.723892 19.3911L9.11456 11.0004L0.723892 2.60977C0.481015 2.3583 0.346622 2.02149 0.34966 1.6719C0.352698 1.3223 0.492923 0.987887 0.740134 0.740676C0.987345 0.493465 1.32176 0.353239 1.67136 0.350201C2.02095 0.347164 2.35776 0.481557 2.60922 0.724434L10.9999 9.1151L19.3906 0.724434C19.5136 0.597087 19.6607 0.495511 19.8234 0.425632C19.986 0.355753 20.161 0.318972 20.338 0.317433C20.5151 0.315895 20.6906 0.34963 20.8545 0.416671C21.0184 0.483712 21.1672 0.582717 21.2924 0.707907C21.4176 0.833097 21.5166 0.981967 21.5837 1.14583C21.6507 1.30969 21.6844 1.48526 21.6829 1.6623C21.6814 1.83934 21.6446 2.0143 21.5747 2.17697C21.5048 2.33964 21.4032 2.48677 21.2759 2.60977L12.8852 11.0004L21.2759 19.3911C21.4032 19.5141 21.5048 19.6612 21.5747 19.8239C21.6446 19.9866 21.6814 20.1615 21.6829 20.3386C21.6844 20.5156 21.6507 20.6912 21.5837 20.855C21.5166 21.0189 21.4176 21.1678 21.2924 21.293C21.1672 21.4182 21.0184 21.5172 20.8545 21.5842C20.6906 21.6512 20.5151 21.685 20.338 21.6834C20.161 21.6819 19.986 21.6451 19.8234 21.5752C19.6607 21.5054 19.5136 21.4038 19.3906 21.2764L10.9999 12.8858L2.60922 21.2764C2.35776 21.5193 2.02095 21.6537 1.67136 21.6507C1.32176 21.6476 0.987345 21.5074 0.740134 21.2602C0.492923 21.013 0.352698 20.6786 0.34966 20.329C0.346622 19.9794 0.481015 19.6426 0.723892 19.3911Z"/>
</svg>
